# xmcd CD database file
#
# Track frame offsets:
#	150
#	22513
#	43134
#	56115
#	79153
#	96603
#	111891
#	137974
#	160012
#	174800
#	186113
#
# Disc length: 2736 seconds
#
# Revision: 2
# Processed by: cddbd v1.5.2PL0 Copyright (c) Steve Scherf et al.
# Submitted via: CDex 1.70beta2
#
DISCID=8b0aae0b
DTITLE=Ray Wylie Hubbard - Tell the Devil I'm Gettin' There As Fast As I Can
DYEAR=2017
DGENRE=Country
TTITLE0=God Looked Around
TTITLE1=Dead Thumb King
TTITLE2=Spider, Snake and Little Sun
TTITLE3=Lucifer and the Fallen Angels
TTITLE4=Open G
TTITLE5=House of the White Rose Bouquet
TTITLE6=Tell the Devil I'm Gettin' There As Fast As I Can
TTITLE7=The Rebellious Sons
TTITLE8=Old Wolf
TTITLE9=Prayer
TTITLE10=In Times of Cold
EXTD=YEAR: 2017
EXTT0=
EXTT1=
EXTT2=
EXTT3=
EXTT4=
EXTT5=
EXTT6=
EXTT7=
EXTT8=
EXTT9=
EXTT10=
PLAYORDER=
